<?xml version="1.0" encoding="utf-8"?>
<!-- Generated by Mocodo 4.2.12 -->
<svg width="544" height="442" viewBox="0 0 544 442" xmlns="http://www.w3.org/2000/svg">
<rect x="0" y="0" width="544" height="442" fill="#ffffff" stroke="none" stroke-width="0"/>

<!-- Association COMMUNIQUE -->
<g>
	<line x1="91" y1="77" x2="256" y2="77" stroke="#878787" stroke-width="2"/>
	<line x1="434" y1="77" x2="256" y2="77" stroke="#878787" stroke-width="2"/>
	<g>
		<path d="M293 52 a14 14 90 0 1 14 14 V77 h-102 V66 a14 14 90 0 1 14 -14" fill="#bababa" stroke="#bababa" stroke-width="0"/>
		<path d="M307 77 v11 a14 14 90 0 1 -14 14 H219 a14 14 90 0 1 -14 -14 V77 H102" fill="#e0e0e0" stroke="#e0e0e0" stroke-width="0"/>
		<rect x="205" y="52" width="102" height="50" fill="none" rx="14" stroke="#878787" stroke-width="2"/>
		<line x1="205" y1="77" x2="307" y2="77" stroke="#878787" stroke-width="1"/>
		<text x="212" y="69.75" fill="#000000" font-family="Verdana" font-size="12">COMMUNIQUE</text>
	</g>
	<text x="178" y="94" fill="#b2182b" font-family="Verdana" font-size="12">1,N</text>
	<text x="312" y="69" fill="#b2182b" font-family="Verdana" font-size="12">1,N</text>
</g>

<!-- Association GERE -->
<g>
	<line x1="434" y1="314" x2="256" y2="170" stroke="#878787" stroke-width="2"/>
	<line x1="434" y1="77" x2="256" y2="170" stroke="#878787" stroke-width="2"/>
	<g>
		<path d="M266 145 a14 14 90 0 1 14 14 V170 h-48 V159 a14 14 90 0 1 14 -14" fill="#bababa" stroke="#bababa" stroke-width="0"/>
		<path d="M280 170 v11 a14 14 90 0 1 -14 14 H246 a14 14 90 0 1 -14 -14 V170 H48" fill="#e0e0e0" stroke="#e0e0e0" stroke-width="0"/>
		<rect x="232" y="145" width="48" height="50" fill="none" rx="14" stroke="#878787" stroke-width="2"/>
		<line x1="232" y1="170" x2="280" y2="170" stroke="#878787" stroke-width="1"/>
		<text x="239" y="162.75" fill="#000000" font-family="Verdana" font-size="12">GERE</text>
	</g>
	<text x="307" y="243.27" fill="#b2182b" font-family="Verdana" font-size="12">1,1</text>
	<text x="312" y="122.71" fill="#b2182b" font-family="Verdana" font-size="12">1,N</text>
</g>

<!-- Association LIEE -->
<g>
	<line x1="91" y1="314" x2="256" y2="314" stroke="#878787" stroke-width="2"/>
	<line x1="434" y1="314" x2="256" y2="314" stroke="#878787" stroke-width="2"/>
	<g>
		<path d="M263 289 a14 14 90 0 1 14 14 V314 h-42 V303 a14 14 90 0 1 14 -14" fill="#bababa" stroke="#bababa" stroke-width="0"/>
		<path d="M277 314 v11 a14 14 90 0 1 -14 14 H249 a14 14 90 0 1 -14 -14 V314 H42" fill="#e0e0e0" stroke="#e0e0e0" stroke-width="0"/>
		<rect x="235" y="289" width="42" height="50" fill="none" rx="14" stroke="#878787" stroke-width="2"/>
		<line x1="235" y1="314" x2="277" y2="314" stroke="#878787" stroke-width="1"/>
		<text x="242" y="306.75" fill="#000000" font-family="Verdana" font-size="12">LIEE</text>
	</g>
	<text x="137" y="331" fill="#b2182b" font-family="Verdana" font-size="12">1,1</text>
	<text x="307" y="331" fill="#b2182b" font-family="Verdana" font-size="12">1,1</text>
</g>

<!-- Entity CLIENTS -->
<g>
	<g>
		<rect x="9" y="9" width="164" height="25" fill="#f4a582" stroke="none" stroke-width="0" opacity="1"/>
		<rect x="9" y="34" width="164" height="111" fill="#fddbc7" stroke="none" stroke-width="0" opacity="1"/>
		<rect x="9" y="9" width="164" height="136" fill="none" stroke="#d6604d" stroke-width="2" opacity="1"/>
		<line x1="9" y1="34" x2="173" y2="34" stroke="#d6604d" stroke-width="1"/>
	</g>
	<text x="65" y="26.75" fill="#000000" font-family="Verdana" font-size="12">CLIENTS</text>
	<text x="14" y="51.8" fill="#000000" font-family="Verdana" font-size="12">pk_id_client</text>
	<line x1="14" y1="54" x2="88" y2="54" stroke="#000000" stroke-width="1"/>
	<text x="14" y="68.8" fill="#000000" font-family="Verdana" font-size="12">nom_client</text>
	<text x="14" y="85.8" fill="#000000" font-family="Verdana" font-size="12">prenom_client</text>
	<text x="14" y="102.8" fill="#000000" font-family="Verdana" font-size="12">email_client</text>
	<text x="14" y="119.8" fill="#000000" font-family="Verdana" font-size="12">numero_telephone_client</text>
	<text x="14" y="136.8" fill="#000000" font-family="Verdana" font-size="12">adresse_client</text>
</g>

<!-- Entity CONSEILLERS -->
<g>
	<g>
		<rect x="339" y="18" width="190" height="25" fill="#f4a582" stroke="none" stroke-width="0" opacity="1"/>
		<rect x="339" y="43" width="190" height="93" fill="#fddbc7" stroke="none" stroke-width="0" opacity="1"/>
		<rect x="339" y="18" width="190" height="118" fill="none" stroke="#d6604d" stroke-width="2" opacity="1"/>
		<line x1="339" y1="43" x2="529" y2="43" stroke="#d6604d" stroke-width="1"/>
	</g>
	<text x="391" y="35.75" fill="#000000" font-family="Verdana" font-size="12">CONSEILLERS</text>
	<text x="344" y="60.8" fill="#000000" font-family="Verdana" font-size="12">pk_id_conseiller</text>
	<line x1="344" y1="63" x2="442" y2="63" stroke="#000000" stroke-width="1"/>
	<text x="344" y="77.8" fill="#000000" font-family="Verdana" font-size="12">nom_conseiller</text>
	<text x="344" y="94.8" fill="#000000" font-family="Verdana" font-size="12">prenom_conseiller</text>
	<text x="344" y="111.8" fill="#000000" font-family="Verdana" font-size="12">email_conseiller</text>
	<text x="344" y="128.8" fill="#000000" font-family="Verdana" font-size="12">numero_telephone_conseiller</text>
</g>

<!-- Entity VOLS -->
<g>
	<g>
		<rect x="50" y="238" width="82" height="25" fill="#f4a582" stroke="none" stroke-width="0" opacity="1"/>
		<rect x="50" y="263" width="82" height="127" fill="#fddbc7" stroke="none" stroke-width="0" opacity="1"/>
		<rect x="50" y="238" width="82" height="152" fill="none" stroke="#d6604d" stroke-width="2" opacity="1"/>
		<line x1="50" y1="263" x2="132" y2="263" stroke="#d6604d" stroke-width="1"/>
	</g>
	<text x="74" y="255.75" fill="#000000" font-family="Verdana" font-size="12">VOLS</text>
	<text x="55" y="280.8" fill="#000000" font-family="Verdana" font-size="12">pk_id_vol</text>
	<line x1="55" y1="283" x2="114" y2="283" stroke="#000000" stroke-width="1"/>
	<text x="55" y="297.8" fill="#000000" font-family="Verdana" font-size="12">dh_depart</text>
	<text x="55" y="314.8" fill="#000000" font-family="Verdana" font-size="12">lieu_depart</text>
	<text x="55" y="331.8" fill="#000000" font-family="Verdana" font-size="12">dh_arrivee</text>
	<text x="55" y="348.8" fill="#000000" font-family="Verdana" font-size="12">lieu_arrivee</text>
	<text x="55" y="365.8" fill="#000000" font-family="Verdana" font-size="12">type_vol</text>
	<text x="55" y="382.8" fill="#000000" font-family="Verdana" font-size="12">compagnie</text>
</g>

<!-- Entity RESERVATIONS -->
<g>
	<g>
		<rect x="333" y="195" width="202" height="25" fill="#f4a582" stroke="none" stroke-width="0" opacity="1"/>
		<rect x="333" y="220" width="202" height="213" fill="#fddbc7" stroke="none" stroke-width="0" opacity="1"/>
		<rect x="333" y="195" width="202" height="238" fill="none" stroke="#d6604d" stroke-width="2" opacity="1"/>
		<line x1="333" y1="220" x2="535" y2="220" stroke="#d6604d" stroke-width="1"/>
	</g>
	<text x="386" y="212.75" fill="#000000" font-family="Verdana" font-size="12">RESERVATIONS</text>
	<text x="338" y="237.8" fill="#000000" font-family="Verdana" font-size="12">pk_id_reservation</text>
	<line x1="338" y1="240" x2="448" y2="240" stroke="#000000" stroke-width="1"/>
	<text x="338" y="254.8" fill="#000000" font-family="Verdana" font-size="12">id_client</text>
	<text x="338" y="271.8" fill="#000000" font-family="Verdana" font-size="12">id_conseiller</text>
	<text x="338" y="288.8" fill="#000000" font-family="Verdana" font-size="12">id_vol</text>
	<text x="338" y="305.8" fill="#000000" font-family="Verdana" font-size="12">statut</text>
	<text x="338" y="322.8" fill="#000000" font-family="Verdana" font-size="12">date_reservation</text>
	<text x="338" y="339.8" fill="#000000" font-family="Verdana" font-size="12">dh_paiement</text>
	<text x="338" y="356.8" fill="#000000" font-family="Verdana" font-size="12">type_paiement</text>
	<text x="338" y="373.8" fill="#000000" font-family="Verdana" font-size="12">nom_reservateur</text>
	<text x="338" y="390.8" fill="#000000" font-family="Verdana" font-size="12">prenom_reservateur</text>
	<text x="338" y="407.8" fill="#000000" font-family="Verdana" font-size="12">email_reservateur</text>
	<text x="338" y="424.8" fill="#000000" font-family="Verdana" font-size="12">numero_telephone_reservateur</text>
</g>
</svg>